<svg xmlns="http://www.w3.org/2000/svg" width="484" height="432"><path fill="#fff" fill-rule="evenodd" d="M138 26.614c-22.754 4.248-42.77 12.089-54.619 21.397-2.134 1.677-6.5 5.111-9.702 7.632C57.307 68.532 43.064 94.088 37.253 121c-2.054 9.512-2.502 14.439-2.593 28.5-.169 26.077 3.102 40.682 14.443 64.5 10.091 21.192 22.381 37.585 44.871 59.853 17.985 17.807 19.814 19.259 48.026 38.116 9.075 6.065 18.269 12.266 20.431 13.779 6.721 4.706 7.295 4.54 1.569-.452-13.928-12.145-40.032-40.422-49.555-53.681-2.72-3.787-6.756-9.412-8.969-12.5-9.943-13.873-21.374-36.417-26.583-52.423-4.198-12.898-8.908-38.202-8.872-47.657.023-6.064 3.759-27.755 6.55-38.035 2.793-10.287 15.171-28.792 24.501-36.627 6.447-5.415 11.428-9.064 14.634-10.722C125.625 68.524 150.177 62 159.555 62c2.33 0 9.121.953 15.091 2.117 21.427 4.18 38.451 16.102 51.155 35.824 4.542 7.051 10.726 20.534 11.597 25.284 1.543 8.416 5.602 14.228 5.602 8.022 0-8.711 10.947-32.767 20.006-43.963 5.584-6.901 16.186-15.095 25.145-19.435 6.84-3.314 26.392-7.858 33.703-7.833 5.55.018 21.466 3.255 29.146 5.927 15.02 5.226 23.357 10.58 34.564 22.198 9.437 9.783 14.72 18.831 19.816 33.939 7.697 22.819 6.529 55.593-3.005 84.297-2.819 8.488-24.852 49.181-29.303 54.123-.991 1.1-3.382 4.51-5.314 7.577-3.55 5.638-12.529 16.436-22.804 27.423-3.086 3.3-8.5 9.151-12.032 13.002-3.532 3.851-8.672 8.702-11.422 10.779-7.534 5.691-9.831 7.721-9.318 8.234.593.594 39.674-25.386 44.318-29.462 1.1-.965 2.68-1.992 3.511-2.281.831-.289 6.215-4.744 11.965-9.899 50.203-45.012 70.538-79.55 75.084-127.52.749-7.914.631-13.587-.504-24.101-2.583-23.942-8.914-41.909-21.239-60.279-16.478-24.56-42.966-41.258-76.009-47.919-26.741-5.39-56.539.792-80.308 16.661-8.95 5.975-21.749 19.106-24.402 25.035-1.046 2.338-2.412 4.25-3.035 4.25-.623 0-4.247-3.937-8.054-8.75-3.807-4.812-9.634-11.154-12.948-14.092-11.476-10.173-29.185-18.844-45.551-22.304-9.102-1.924-31.452-3.277-37.01-2.24m211.363 57.878c-14.212 2.662-26.363 9.389-40.622 22.491-5.957 5.474-8.857 9.446-15.755 21.578-3.093 5.441-7.766 20.712-9.02 29.478-1.035 7.228-.986 9.606.319 15.5 3.1 14.007 3.155 16.92.393 20.984-1.369 2.015-8.758 10.26-16.42 18.321-7.662 8.061-16.119 17.356-18.793 20.656-2.674 3.3-5.443 6.59-6.154 7.312-.711.722-3.735 4.547-6.721 8.5-2.986 3.953-6.277 8.088-7.313 9.188-1.943 2.064-11.245 15.233-14.777 20.922-1.1 1.772-3.397 4.989-5.105 7.15-1.708 2.16-3.667 4.997-4.353 6.303-.685 1.307-2.775 4.379-4.644 6.827-1.869 2.448-3.398 4.906-3.398 5.461 0 .556-1.429 3.109-3.175 5.674-5.902 8.669-6.557 9.717-8.683 13.885-1.168 2.289-3.296 5.875-4.729 7.97-1.434 2.094-5.711 10.108-9.506 17.808-5.118 10.383-7.466 16.536-9.089 23.813-2.174 9.745-2.176 9.852-.3 15.371 6.012 17.686 21.048 25.901 38.126 20.829 3.583-1.064 6.738-3.126 11.096-7.25 6.628-6.273 7.976-9.267 8.952-19.895.475-5.17.171-6.988-1.937-11.592-3.016-6.588-6.215-9.776-9.809-9.776-3.742 0-6.838 2.745-12.331 10.932-4.411 6.575-7.615 8.96-7.615 5.67 0-.769 1.736-4.256 3.858-7.75 2.122-3.494 7.142-12.427 11.157-19.852 4.014-7.425 9.857-18.225 12.985-24 3.127-5.775 7.894-13.906 10.593-18.068A1374.997 1374.997 0 0 0 237 292.556c19.35-30.99 37.208-56.664 50.44-72.513 12.898-15.451 14.909-16.558 32.56-17.931 19.959-1.552 32.177-7.232 47.31-21.994 11.032-10.762 19.315-24.956 24.287-41.618 2.683-8.995 2.475-24.289-.431-31.645-4.472-11.317-11.892-18.305-22.666-21.347-7.97-2.251-11.532-2.44-19.137-1.016m-198.696.175c-1.673 1.672-.305 6.492 3.859 13.606 3.777 6.453 9.286 14.088 24.602 34.099 2.972 3.882 10.985 20.549 11.548 24.018.62 3.821-2.11 9.61-4.531 9.61-1.658 0-2.24-.687-10.173-12a2228.89 2228.89 0 0 0-10.716-15.138 4698.227 4698.227 0 0 1-8.212-11.5c-10.138-14.261-20.369-27.473-22.688-29.297-5.457-4.292-11.181-1.422-8.271 4.147 2.547 4.875 10.743 18.118 23.387 37.788 18.546 28.852 19.3 30.102 20.927 34.713 2.888 8.188-1.409 11.531-8.657 6.735-11.173-7.394-17.482-15.332-31.747-39.948-10.989-18.963-19.381-29.5-23.492-29.5-3.669 0-5.848 3.322-5.059 7.71 1.105 6.139 19.371 42.201 29.778 58.79 3.768 6.006 6.732 9.302 11.89 13.225 10.922 8.306 17.828 10.997 34.177 13.316 11.065 1.569 10.168.53 35.196 40.796 3.192 5.135 6.444 9.582 7.227 9.883.827.317 2.338-.639 3.606-2.282 1.2-1.555 3.94-4.779 6.089-7.165l3.906-4.337-2.473-2.718c-1.36-1.495-6.691-8.568-11.845-15.718-5.155-7.15-10.429-14.292-11.721-15.871-2.993-3.659-5.274-9.105-5.274-12.595 0-1.496.92-5.379 2.044-8.627 1.124-3.249 2.508-9.314 3.074-13.479.932-6.848.79-8.473-1.484-17.019-4.531-17.029-13.833-34.307-27.637-51.332-3.391-4.183-7.815-8.94-9.831-10.572l-8.011-6.486c-4.036-3.27-7.907-4.433-9.488-2.852m98.996 198.618c-2.057 3.968-4.853 9.015-6.213 11.215-1.36 2.2-2.282 4.675-2.05 5.5.395 1.401 13.904 40.53 22.053 63.876 1.993 5.707 4.502 12.198 5.578 14.424 1.986 4.112 1.673 6.742-.398 3.34-7.615-12.507-14.295-19.65-18.346-19.618-4.402.035-7.119 2.95-9.781 10.493-2.955 8.377-3.153 14.272-.648 19.275 1.022 2.04 2.136 4.867 2.474 6.282.978 4.08 9.379 10.463 16.345 12.417 5.178 1.453 7.149 1.537 13.393.568 4.027-.625 8.795-2.047 10.597-3.16 5.105-3.155 10.647-10.092 12.788-16.006 3.145-8.689 2.528-13.292-4.673-34.891-5.519-16.554-8.802-24.108-21.733-50-8.377-16.775-15.324-30.597-15.438-30.715-.114-.118-1.89 3.032-3.948 7"/></svg>