<svg xmlns="http://www.w3.org/2000/svg" width="1928" height="436"><path fill-rule="evenodd" d="M115 23.038c-1.925.526-6.425 1.598-10 2.382-17.69 3.878-32.96 11.463-48.311 23.995-11.859 9.683-14.834 12.843-21.003 22.316-9.504 14.593-15.601 30.007-19.291 48.769-2.502 12.721-2.537 39.481-.07 53 6.288 34.451 28.435 70.626 61.487 100.431 4.778 4.308 10.038 9.279 11.688 11.045 1.65 1.766 5.475 4.848 8.5 6.849 3.025 2.001 7.345 4.997 9.6 6.657 5.808 4.275 13.626 9.686 22.9 15.851 4.4 2.924 9.75 6.521 11.89 7.992 7.875 5.416 7.041 2.04-.945-3.825-7.165-5.262-36.256-37.184-46.022-50.5-4.235-5.775-8.901-12.075-10.368-14-2.522-3.309-4.055-5.882-11.317-19-13.611-24.586-20.94-48.286-23.192-75-1.194-14.169 5.092-44.832 11.208-54.669 3.81-6.13 13.154-19.358 15.632-22.13 1.13-1.265 4.543-3.943 7.584-5.952 3.042-2.01 6.112-4.225 6.824-4.924.712-.699 3.412-2.218 6-3.377 16.494-7.382 34.441-11.585 45.202-10.585 26.787 2.49 46.483 13.965 60.93 35.501 4.88 7.274 13.068 24.091 13.084 26.87.005.971 1.218 4.241 2.696 7.266 2.585 5.293 2.699 5.387 3.026 2.5.841-7.41 3.714-16.148 8.286-25.201 10.3-20.392 18.666-29.483 35.276-38.333 5.933-3.161 10.693-4.761 19.526-6.563 6.424-1.31 13.521-2.387 15.771-2.392 11.46-.03 41.588 9.142 47.93 14.592 1.535 1.318 3.186 2.397 3.669 2.397.484 0 4.93 3.905 9.881 8.678 11.07 10.671 16.994 20.622 22.517 37.822l3.854 12-.022 23c-.022 22.949-.029 23.024-3.25 34-1.775 6.05-3.598 12.35-4.049 14-1.781 6.505-21.375 42.899-27.954 51.921-1.974 2.707-5.216 7.432-7.205 10.5-6.768 10.442-31.765 37.693-49.03 53.45-3.537 3.228-5.082 5.055-3.432 4.06 10.671-6.441 16.851-10.464 23-14.974 9.435-6.92 15.609-11.26 22.078-15.52 12.287-8.092 47.086-42.571 55.346-54.837 1.334-1.98 3.88-5.4 5.66-7.6 4.538-5.61 15.68-27.624 18.22-36 7.87-25.948 8.659-31.534 7.882-55.827-.491-15.323-1.023-20.446-2.65-25.512-1.12-3.487-2.036-7.225-2.036-8.307 0-1.082-2.194-7.007-4.876-13.166-11.408-26.203-27.328-43.171-53.638-57.17-13.251-7.05-18.755-8.795-39.486-12.519-16.816-3.02-42.699 1.158-62.5 10.087-12.376 5.582-30.199 20.868-35.705 30.623-1.642 2.91-3.466 5.588-4.052 5.95-1.083.669-1.528.2-7.743-8.164-8.266-11.124-17.843-19.717-27-24.226-1.375-.677-3.175-1.676-4-2.22-5.385-3.551-18.426-8.428-27.256-10.194-11.455-2.29-35.145-3.346-40.744-1.817m411.798 56.774c-2.541.293-2.72.65-3 6-.164 3.128-.073 56.088.202 117.688l.5 112 42 .312c23.1.171 50.589.012 61.086-.353l19.087-.665 1.147-3.171c1.336-3.695.691-10.679-1.09-11.811-1.058-.672-94.966-1.509-101.633-.906-1.321.12-2.777-.373-3.234-1.094-.458-.722-.839-49.985-.848-109.473L541 80.178l-5.75-.339c-3.163-.187-6.966-.199-8.452-.027m626.506.144c-12.317.623-16.297 1.207-21 3.082-13.842 5.52-20.488 12.551-27.495 29.087l-2.277 5.375-.32 77.5c-.291 70.398-.165 78.096 1.381 84 2.418 9.24 5.535 14.944 11.953 21.876 10.265 11.088 19.417 13.933 47.454 14.751 24.398.712 47.122-.718 56.062-3.529 16.416-5.16 28.64-20.738 30.377-38.712 1.069-11.064 1.447-22.883.868-27.136l-.579-4.25h-7.757c-6.151 0-7.883.328-8.364 1.582-.334.87-.607 7.532-.607 14.806 0 15.115-1.869 22.662-7.411 29.928-5.214 6.837-12.276 9.783-25.781 10.755-19.757 1.422-48.124 1.11-55.611-.61-12.552-2.885-20.58-11.261-23.597-24.622-1.386-6.137-1.595-16.461-1.564-77.212.037-74.113.153-76.198 4.732-85.172 1.135-2.225 4.084-5.907 6.553-8.183 7.433-6.852 10.166-7.273 47.111-7.262 31.504.009 32.156.051 37.088 2.347 7.155 3.332 13.628 10.906 16.314 19.088 1.786 5.438 2.166 8.953 2.166 20.005 0 15.854.352 16.55 8.38 16.55 8.826 0 9.024-.394 8.771-17.391-.278-18.641-1.667-25.379-7.256-35.202-4.977-8.747-16.142-16.88-27.395-19.956-7.142-1.953-38.334-2.702-62.196-1.495m365.446-.14-2.75.317-.061 104.683c-.034 57.576-.119 110.23-.189 117.008-.143 13.793.236 14.626 6.25 13.723 1.925-.289 5.184-.53 7.241-.536l3.741-.011.259-53.25.259-53.25 45.733-.26 45.734-.26.576-2.294c.316-1.261.436-4.744.266-7.739l-.309-5.447-45.455-.5-45.455-.5-.696-2.5c-1.213-4.364-1.03-91.798.194-92.554.598-.37 23.661-.959 51.25-1.309l50.162-.637.292-7.147.291-7.147-6.291-.736c-5.805-.678-104.817-.37-111.042.346m171.5-.003-3.25.314V315l2.25.151c3.783.254 13.113-.257 13.931-.763.424-.262.787-53.064.807-117.339l.035-116.863-5.261-.343c-2.894-.189-6.725-.202-8.512-.03m99.75.126-20.5.561-.254 116.053c-.206 93.945-.007 116.392 1.045 117.831 1.128 1.543 2.248 1.684 8.474 1.07l7.174-.706.281-43.292c.154-23.81.531-43.542.839-43.849.307-.307 17.857-.727 39-.933 41.502-.404 46.635-.951 56.683-6.043 6.885-3.489 15.292-11.441 18.684-17.672 5.721-10.513 6.538-16.486 6.555-47.959.023-40.575-1.616-48.011-13.382-60.72-6.155-6.648-15.506-11.827-23.927-13.252-6.804-1.151-54.761-1.799-80.672-1.089M130.345 81.544c-1.848 4.814 1.684 11.361 17.172 31.828 12.952 17.117 14.352 19.239 18.681 28.305 5.246 10.988 5.699 14.169 2.538 17.844l-2.469 2.87-2.755-2.945c-1.515-1.621-3.484-4.071-4.374-5.446-1.648-2.544-20.354-28.535-33.313-46.287-3.93-5.383-8.664-11.12-10.52-12.75-4.146-3.64-8.793-4.029-9.636-.805-.992 3.792-1.329 3.197 26.981 47.587 18.986 29.77 19.85 31.439 18.125 35.04-1.86 3.88-4.831 3.468-12.127-1.681-7.565-5.338-15.694-15.618-23.897-30.221C101.213 120.786 91.435 108 86.545 108c-3.06 0-5.545 3.436-5.545 7.668 0 4.842 23.196 49.86 31.762 61.643 3.698 5.086 15.336 14.935 21.153 17.901 3.15 1.605 17.229 4.992 26.172 6.295 4.82.702 10.645 5.876 15.368 13.65 10.814 17.799 21.763 34.73 23.441 36.249 1.799 1.628 1.993 1.559 4.158-1.482 1.249-1.754 3.992-5.042 6.096-7.306 2.104-2.265 3.831-4.407 3.838-4.76.006-.353-1.345-2.378-3.004-4.5-9.343-11.951-22.752-30.526-25.164-34.858-3.342-6.002-3.393-7.14-.701-15.5 3.431-10.655 4.028-20.093 1.898-30-5.157-23.987-23.001-51.385-45.12-69.277-4.859-3.93-9.511-4.891-10.552-2.179M327 81.072c-10.359 1.817-19.658 6.406-30 14.803-10.486 8.515-15.15 13.67-20.581 22.744-6.495 10.853-10.611 22.506-12.393 35.087-1.21 8.548-1.143 10.02.936 20.6 2.197 11.182 2.205 11.461.389 14.948-1.018 1.954-8.334 10.234-16.257 18.399-13.633 14.05-17.869 18.846-27.814 31.484-2.321 2.95-7.061 8.963-10.534 13.363-6.861 8.694-15.073 20.028-18.246 25.182-1.1 1.787-4.749 7.202-8.108 12.033-5.642 8.114-19.364 30.246-26.838 43.285-12.645 22.063-19.214 42.999-16.516 52.637 2.213 7.902 7.942 15.501 14.054 18.641 6.968 3.58 10.744 4.13 19.755 2.879 7.837-1.088 11.916-3.253 18.463-9.8 7.137-7.138 8.754-23.453 3.253-32.839-3.452-5.891-5.727-7.085-10.676-5.602-2.965.888-4.935 2.647-8.809 7.864-6.308 8.496-6.945 9.22-8.117 9.22-1.487 0-1.139-2.301.757-5.007.944-1.349 2.632-4.146 3.75-6.217 2.875-5.324 13.496-24.6 15.856-28.776 1.088-1.925 3.847-7.1 6.131-11.5 3.852-7.422 8.9-15.8 16.826-27.925 1.77-2.709 3.669-5.658 4.219-6.554 1.605-2.614 9.683-15.299 11.415-17.924a236.214 236.214 0 0 0 3.585-5.679c2.793-4.576 13.005-19.406 15.437-22.418 1.11-1.375 2.029-2.982 2.041-3.57.012-.589 1.509-2.839 3.326-5 1.817-2.162 5.518-6.855 8.223-10.43 9.132-12.067 20.069-23.516 23.831-24.946 1.256-.478 6.977-1.169 12.713-1.537 12.419-.796 26.762-4.542 32.429-8.469 2.2-1.525 5.35-3.468 7-4.317 4.638-2.389 19.08-17.543 23.092-24.231 10.612-17.692 13.746-27.204 13.839-42 .058-9.282-.304-11.983-2.321-17.297-3.062-8.071-9.25-14.968-16.702-18.617-6.562-3.213-17.632-4.228-27.408-2.514m361.017 94.678c.019 104.549-.043 103.32 5.796 114.872 3.642 7.206 12.706 16.045 20.187 19.684 9.195 4.474 15.049 5.109 46 4.995 25.382-.093 29.348-.33 36.254-2.163 14.909-3.958 24.611-12.326 30.666-26.451 3.983-9.292 4.193-15.392 3.88-112.687l-.3-93.5-8.222-.29-8.221-.29-.279 97.29-.278 97.29-3.116 6.5c-3.411 7.118-5.246 9.451-10.1 12.841-6.723 4.696-11.845 5.391-40.784 5.53-23.42.112-27.773-.11-32.827-1.671-7.353-2.272-13.756-8.016-18.016-16.163L705.5 275.5l-.283-97.75-.283-97.75H688l.017 95.75m205.688-95.122c-1.001 1.002-.849 232.596.154 234.178.629.992 2.667 1.139 8.48.612l7.651-.693.255-97.529c.192-73.45.544-97.626 1.426-97.92.645-.215 2.952 2.673 5.127 6.417 16.667 28.681 20.947 35.998 36.73 62.807 2.914 4.95 18.559 31.738 34.767 59.529 43.086 73.877 38.459 66.667 43.186 67.303 2.21.297 5.484.231 7.275-.146l3.257-.686.002-114c.001-62.7-.002-115.463-.007-117.25L1042 80h-16v97.441c0 59.698-.364 97.666-.939 98.022-.966.596-6.061-4.271-6.061-5.79 0-.466-5.689-10.595-12.641-22.51-14.905-25.541-48.42-83.171-59.125-101.663-8.554-14.777-11.754-20.273-19.216-33-2.902-4.95-6.42-11.025-7.817-13.5a932.849 932.849 0 0 0-6.663-11.5l-4.121-7-7.503-.288c-4.127-.159-7.821.029-8.209.416M1306 197.491c0 94.319.252 117.668 1.274 118.061.701.269 4.413.142 8.25-.282l6.976-.77.5-55 .5-55 53-.5c29.15-.275 54.013-.335 55.25-.133l2.25.366v54.312c0 62.936-.855 58.014 9.886 56.897 3.638-.379 6.944-.88 7.348-1.114.404-.234.745-53.054.758-117.377L1452.016 80h-8.391c-7.857 0-8.43.143-8.995 2.25-.331 1.237-.609 25.248-.616 53.357l-.014 51.106-8.888.671c-12.004.906-99.367.694-100.886-.245-.914-.564-1.271-13.637-1.467-53.692L1322.5 80.5l-8.25-.29-8.25-.291v117.572m480.708-100.865c-1.001 1-.855 110.594.149 112.178.663 1.044 8.767 1.243 40.735 1l39.908-.304 5.787-2.841c4.099-2.013 6.917-4.346 9.661-8 6.933-9.229 7.196-11.058 6.854-47.717-.292-31.415-.375-32.6-2.603-37.442-2.764-6.005-7.119-10.734-13.199-14.335l-4.5-2.665-41.042-.291c-22.573-.16-41.361.027-41.75.417M232.386 272.687c-1 3.021-3.425 8.72-4.389 10.313-.499.825-2.301 3.897-4.004 6.828-3.662 6.297-4.413 2.707 7.991 38.172 4.521 12.925 8.807 25.3 9.524 27.5.718 2.2 3.115 8.5 5.328 14 2.212 5.5 3.267 8.969 2.343 7.709-6.163-8.408-14.302-18.042-15.693-18.576-7.025-2.696-13.992 5.846-15.217 18.657-1.153 12.055 7.604 25.981 18.121 28.816 2.26.61 8.226.929 13.256.709 8.019-.349 9.744-.766 14-3.386 6.3-3.877 10.662-10.486 12.871-19.5 1.753-7.152 1.748-7.305-.497-15.327-2.065-7.374-5.151-16.944-10.148-31.469-1.839-5.344-28.278-58.774-29.979-60.583-.491-.522-.893-1.733-.893-2.691 0-2.48-1.9-3.332-2.614-1.172"/></svg>