<svg xmlns="http://www.w3.org/2000/svg" width="1948" height="420"><path fill="#fff" fill-rule="evenodd" d="M118.53 16.019C100.572 20.01 80.154 28.672 71.684 35.89c-1.751 1.493-5.525 4.401-8.387 6.463-15.876 11.437-31.358 37.678-37.323 63.258-5.553 23.815-4.627 56.01 2.139 74.389 9.386 25.495 13.903 33.925 29.342 54.763 9.366 12.643 38.594 42.032 49.045 49.317 17.636 12.293 48.794 32.96 49.152 32.602.218-.219-2.202-2.579-5.378-5.246-10.686-8.972-38.944-39.487-47.199-50.971L93.75 247.5C84.013 233.968 66 197.992 66 192.079c0-.555-.684-3.024-1.52-5.487-2.144-6.316-5.363-24.535-6.111-34.592-.703-9.464 2.306-30.835 5.753-40.854 1.033-3.003 1.878-6.072 1.878-6.82 0-1.924 9.062-16.302 14.564-23.106 5.383-6.657 16.873-16.258 23.683-19.789 9.737-5.049 33.994-11.467 43.253-11.444 7.092.017 24.94 3.853 30.933 6.647 19.134 8.922 34.473 25.347 43.299 46.366 1.732 4.125 3.451 9.027 3.82 10.893.368 1.867 1.356 5.017 2.195 7l1.526 3.607 2.771-9.694c3.4-11.893 12.446-29.595 19.432-38.029 5.612-6.775 17.978-16.167 26.024-19.766 5.968-2.67 26.165-7.017 32.5-6.995 5.425.019 21.401 3.284 29 5.927 15.398 5.355 24.345 11.099 35.134 22.557 9.002 9.561 14.794 19.685 19.415 33.939 8.952 27.616 5.633 66.44-8.127 95.061-5.273 10.967-21.871 40.239-24.382 43-1.001 1.1-3.487 4.633-5.525 7.852-4.602 7.266-35.013 41.796-41.896 47.57a2836.89 2836.89 0 0 0-6.259 5.284c-2.409 2.038-5.159 4.142-6.111 4.675-.953.533-1.482 1.219-1.176 1.525.545.546 23.905-14.626 37.116-24.106 3.679-2.64 8.807-6.292 11.396-8.115 9.353-6.586 29.987-26.066 42.038-39.685 23.336-26.375 33.838-45.839 41.274-76.5 8.437-34.784 1.646-74.44-17.707-103.403-8.939-13.379-14.73-19.472-26.305-27.679-27.142-19.244-56.555-26.985-85.327-22.457-18.351 2.889-31.565 7.898-45.558 17.27-8.985 6.018-20.632 17.951-23.929 24.519-1.312 2.612-2.933 4.75-3.603 4.75-.67 0-3.961-3.545-7.313-7.878C210.448 38.988 195.31 27.642 178 21.026c-16.634-6.358-43.296-8.603-59.47-5.007M534 70.686c-1.375.284-2.831 1.033-3.235 1.665-.404.632-.741 53.638-.75 117.792-.014 105.45.137 116.701 1.567 117.25 2.121.814 119.099.548 122.918-.28l3-.65v-7.313c0-6.109-.323-7.548-1.96-8.745-1.643-1.201-10.205-1.426-52.884-1.386-28.008.025-51.067-.097-51.243-.272-.175-.176-.452-48.768-.616-107.983-.231-83.781-.571-107.939-1.532-108.9-1.303-1.302-11.026-2.052-15.265-1.178m163 .553-2.5 1.32-.255 95.459c-.251 93.796-.219 95.598 1.82 103.463 2.777 10.714 6.12 16.527 13.445 23.38 6.91 6.463 14.674 10.657 22.467 12.135 2.913.552 18.622.996 34.909.987 32.126-.019 39.145-.807 48.652-5.458 6.21-3.038 15.347-12.06 18.987-18.748 5.877-10.798 5.757-8.578 6.17-113.874.353-89.691.259-96.696-1.308-97.997-1.802-1.495-13.492-1.979-16.637-.687-1.649.677-1.75 6.068-1.75 93.316 0 91.605-.023 92.695-2.175 101.747-2.052 8.634-2.489 9.473-7.75 14.843-8.18 8.352-10.129 8.754-43.362 8.947-17.207.1-28.705-.247-31.272-.944-5.66-1.537-12.731-6.454-15.657-10.889-5.991-9.078-5.761-4.914-6.034-109.448-.196-75.063-.52-95.961-1.503-96.944-1.798-1.798-13.188-2.224-16.247-.608m205.392-.26c-1.288.52-2.376 2.149-2.796 4.186-1.098 5.322-.438 230.143.68 231.585 1.199 1.547 14.997 1.71 17.8.21 1.904-1.02 1.943-2.962 1.924-95.75-.011-52.091-.015-95.272-.01-95.96.017-2.08 2.001-1.402 2.929 1 .822 2.129 8.25 15.162 20.09 35.25 2.917 4.95 6.306 10.8 7.531 13 1.225 2.2 5.273 9.175 8.995 15.5 11.627 19.755 24.262 41.362 30.99 53 1.749 3.025 5.556 9.55 8.459 14.5 2.904 4.95 7.635 13.05 10.513 18 2.878 4.95 8.669 14.766 12.868 21.814 4.199 7.047 7.635 13.134 7.635 13.527 0 .392 1.369 2.212 3.042 4.043 3.003 3.289 3.134 3.326 10.467 2.955 4.085-.206 7.779-.817 8.209-1.357.43-.54.557-53.632.282-117.982l-.5-117-3.584-.886c-1.972-.487-6.134-.567-9.25-.178l-5.666.708v97.511c0 73.748-.284 97.417-1.165 97.123-.64-.213-2.778-3.356-4.75-6.984-3.657-6.729-7.92-14.133-22.909-39.794-4.659-7.975-9.241-15.85-10.184-17.5-.943-1.65-5.532-9.525-10.197-17.5-4.665-7.975-10.24-17.57-12.389-21.323-4.347-7.593-4.441-7.753-9.52-16.18-1.988-3.298-4.975-8.472-6.639-11.497-4.344-7.901-30.409-52.724-33.532-57.664-1.447-2.29-3.651-4.878-4.896-5.75-2.443-1.712-10.822-2.064-14.427-.607m248.797.507c-18.962 2.94-30.311 11.03-37.894 27.014l-3.795 8-.284 79.976c-.188 52.653.07 81.632.755 84.824 2.584 12.05 12.643 25.457 23.036 30.704 10.948 5.526 14.828 5.998 49.137 5.976 36.158-.023 42.445-.681 52.446-5.491 8.776-4.221 14.952-10.701 19.866-20.844 3.906-8.063 5.901-20.976 5.726-37.067-.125-11.514-.683-12.132-10.755-11.922-10.588.221-10.779.471-10.17 13.317 1.041 21.985-3.78 34.376-15.77 40.527l-5.848 3h-34.069c-31.565 0-34.327-.14-37.57-1.898-9.76-5.294-14.233-11.777-16.006-23.2-.722-4.654-.983-31.18-.787-79.934l.293-72.968 2.457-5c3.377-6.87 10.516-13.761 16.578-15.999 4.247-1.568 8.993-1.895 32.811-2.261 28.806-.444 32.751-.084 41.097 3.749 4.069 1.869 9.858 7.329 12.744 12.021 2.711 4.407 4.087 13.123 4.237 26.846.174 15.946.306 16.144 10.744 16.144 8.726 0 9.622-1.183 9.842-13 .434-23.315-3.395-37.063-13.26-47.608-12.647-13.52-23.796-16.438-62.25-16.29-14.925.057-28.349.615-33.311 1.384m165.311-.665-3 .699V307.5l4.5.327c2.475.18 6.859.035 9.742-.321l5.241-.648.259-55.179.258-55.179 53.75-.259 53.75-.258.015 54.758c.009 30.118.414 55.388.9 56.156.693 1.094 2.776 1.279 9.58.855 4.783-.298 9.108-.955 9.613-1.46.548-.548.811-47.576.654-117.055-.211-93.735-.513-116.388-1.563-117.437-1.449-1.447-16.514-1.818-17.892-.44-.444.443-1.032 24.623-1.307 53.734l-.5 52.928-52 .006c-28.6.004-52.787-.001-53.75-.011-1.644-.016-1.75-3.184-1.75-52.395 0-44.214-.223-52.562-1.431-53.565-1.739-1.443-10.939-2.197-15.069-1.236m209 .045-3 .654V307.5h9.288c5.954 0 9.544-.415 10-1.157.392-.636.712-24.368.712-52.738 0-42.031.247-51.676 1.332-52.093.732-.282 21.04-.512 45.127-.512 36.467 0 43.992-.236 44.966-1.41.716-.862 1.055-4.068.873-8.25l-.298-6.84-45.168-.5c-24.842-.275-45.499-.832-45.904-1.237-.832-.834-.686-92.537.15-93.889.297-.481 21.376-.874 46.841-.874 25.466 0 48.444-.294 51.063-.653l4.761-.652-.472-7.365c-.26-4.051-.802-7.695-1.205-8.098-.912-.912-114.948-1.263-119.066-.366m170.852-.223c-1.181.258-2.349 1.238-2.595 2.177-.814 3.114-.273 232.656.552 233.93.87 1.345 9.5 1.673 15.953.606l3.762-.622-.262-117.284c-.144-64.506-.624-117.645-1.066-118.087-.905-.906-13.048-1.441-16.344-.72m82.023.046c-1.939.381-2.178 1.267-2.736 10.114-.809 12.835-.049 224.725.811 226.116.947 1.532 15.749 1.391 17.855-.169 1.531-1.133 1.712-5.212 1.942-43.75l.253-42.5 39-.634c41.303-.672 45.736-1.146 56.055-5.997 5.843-2.746 14.35-10.488 18.315-16.666 1.684-2.625 4.09-7.907 5.346-11.738 2.192-6.684 2.284-8.297 2.284-39.965 0-29.597-.195-33.619-1.893-39-6.41-20.319-19-31.26-40.193-34.927-7.405-1.282-17.028-1.548-52-1.437-23.603.075-43.87.324-45.039.553M337.961 72.515c-14.616 2.387-27.453 9.506-41.776 23.166-12.16 11.598-21.464 30.937-24.227 50.358-1.026 7.216-.976 9.616.327 15.5 3.08 13.914 3.147 16.932.464 20.88-1.331 1.958-8.721 10.202-16.423 18.321-7.702 8.118-16.181 17.46-18.842 20.76-2.662 3.3-5.128 6.225-5.482 6.5-.354.275-3.049 3.65-5.989 7.5s-6.772 8.607-8.515 10.571c-2.86 3.222-9.718 13.005-14.998 21.395-1.1 1.748-3.401 4.945-5.113 7.106-1.712 2.16-3.853 5.278-4.757 6.928-.904 1.65-2.484 4.125-3.511 5.5-1.027 1.375-3.162 4.687-4.743 7.359-1.582 2.673-4.099 6.723-5.594 9-1.494 2.278-3.847 6.244-5.227 8.814-1.381 2.57-3.689 6.395-5.13 8.5-7.002 10.23-16.72 32.078-18.885 42.454-1.763 8.452-1.897 11.195-.662 13.637.483.955 1.559 3.311 2.393 5.236 6.312 14.585 20.819 21.132 36.504 16.474 3.758-1.116 6.738-3.063 11.095-7.25 6.479-6.225 7.854-9.321 8.822-19.856.475-5.17.171-6.988-1.937-11.592-3.016-6.588-6.215-9.776-9.809-9.776-3.73 0-6.836 2.742-12.256 10.821-7.756 11.559-11.027 9.878-3.832-1.969 2.122-3.494 7.142-12.427 11.157-19.852 4.014-7.425 9.933-18.376 13.153-24.336 3.22-5.96 7.143-12.71 8.719-15 1.575-2.29 3.932-5.964 5.238-8.164 8.659-14.586 34.299-53.444 43.191-65.458 7.935-10.72 19.904-25.289 23.684-28.828 4.777-4.474 10.333-6.262 21.237-6.838 19.873-1.048 33.717-7.333 49.073-22.276 11.027-10.732 19.309-24.917 24.287-41.6 2.683-8.995 2.475-24.289-.431-31.645-5.353-13.547-14.935-20.772-30.666-23.123-1.65-.247-6.393.106-10.539.783m-199.294.152c-3.459 3.458 4.318 16.81 24.761 42.51 6.102 7.671 14.456 23.696 15.206 29.169.474 3.455.191 5.03-1.262 7.022-2.562 3.516-4.399 3.239-7.564-1.142A12274.29 12274.29 0 0 1 151.757 125c-28.353-39.692-29.466-41-34.892-41-2.573 0-2.865.335-2.865 3.291 0 3.721 3.887 10.258 31.288 52.622 13.602 21.031 16.288 27.73 12.291 30.653-2.257 1.65-5.205.775-10.579-3.139-10.016-7.296-15.358-14.253-29.077-37.869-15.165-26.103-23.057-33.862-27.518-27.054-2.354 3.593-.912 8.311 7.662 25.065 19.711 38.519 23.986 45.267 33.045 52.156 3.779 2.874 8.595 6.105 10.702 7.18 4.14 2.112 17.52 5.525 25.866 6.598 6.852.88 11.442 5.401 20.304 19.997 13.793 22.717 18.345 29.689 19.728 30.22.827.317 2.338-.639 3.606-2.282 1.2-1.555 3.91-4.747 6.022-7.092l3.841-4.265-3.086-3.791c-1.697-2.084-6.525-8.515-10.729-14.29-4.204-5.775-8.869-12.084-10.367-14.02-4.157-5.372-6.999-11.541-6.998-15.19 0-1.81.908-5.679 2.018-8.599 1.109-2.919 2.485-8.67 3.057-12.779.908-6.528.77-8.545-1.093-15.981-5.871-23.432-24.117-52.391-42.135-66.873-7.413-5.957-11.354-7.719-13.181-5.891M1796.459 89.25c-.263.688-.362 26-.219 56.25l.26 55h39c37.909 0 39.131-.061 43.696-2.17 7.282-3.365 12.913-9.714 15.554-17.539 2.131-6.312 2.25-8.221 2.249-35.978 0-26.913-.165-29.763-2.018-34.813-4.786-13.048-9.274-17.279-21.79-20.538-7.611-1.983-75.982-2.171-76.732-.212M239.091 269.268c-1.325 2.877-3.396 6.582-4.602 8.232-5.973 8.171-5.98 8.282-1.48 21.26 2.24 6.457 5.16 14.89 6.489 18.74 10.666 30.882 15.858 45.334 17.538 48.811 2.286 4.732 2.278 4.689.933 4.689-.568 0-1.306-.788-1.64-1.75-1.011-2.907-11.229-15.955-13.83-17.658-5.989-3.925-10.583-.885-14.021 9.274-3 8.87-3.127 13.941-.478 19.134 1.1 2.156 2 4.623 2 5.483 0 .859 2.29 3.746 5.088 6.415 6.868 6.551 14.126 8.645 24.721 7.135 8.619-1.229 11.527-2.58 16.611-7.716 4.152-4.194 7.148-10.206 8.706-17.469.883-4.116.629-6.042-1.984-15.034-6.341-21.832-11.688-34.918-25.747-63.024C249.478 279.963 243 266.335 243 265.507c0-2.893-1.518-1.432-3.909 3.761"/></svg>